<svg width="644" height="543" viewBox="0 0 644 543" fill="none" xmlns="http://www.w3.org/2000/svg">
<g id="desing1 1" clip-path="url(#clip0)">
<path id="Vector" d="M612.079 571H45.9206C43.5555 570.997 41.288 570.041 39.6156 568.34C37.9433 566.639 37.0026 564.332 37 561.927V9.07309C37.0026 6.66757 37.9433 4.36131 39.6156 2.66035C41.288 0.959382 43.5555 0.00262574 45.9206 0H612.079C614.445 0.00262574 616.712 0.959382 618.384 2.66035C620.057 4.36131 620.997 6.66757 621 9.07309V561.927C620.997 564.332 620.057 566.639 618.384 568.34C616.712 570.041 614.445 570.997 612.079 571ZM45.9206 3.62924C44.5015 3.63081 43.141 4.20487 42.1376 5.22545C41.1342 6.24603 40.5698 7.62978 40.5682 9.07309V561.927C40.5698 563.37 41.1342 564.754 42.1376 565.775C43.141 566.795 44.5015 567.369 45.9206 567.371H612.079C613.498 567.369 614.859 566.795 615.862 565.775C616.866 564.754 617.43 563.37 617.432 561.927V9.07309C617.43 7.62978 616.866 6.24603 615.862 5.22545C614.859 4.20487 613.498 3.63081 612.079 3.62924H45.9206Z" fill="url(#paint0_linear)"/>
<g id="cuadro2">
<path id="Path 78" d="M293.131 443.842H58.293C53.715 443.842 50.005 441.199 50 437.942V386.9C50.005 383.643 53.715 381 58.293 381H293.131C297.709 381 301.419 383.643 301.424 386.9V437.941C301.42 441.198 297.709 443.838 293.131 443.842ZM58.293 383.358C55.546 383.358 53.32 384.944 53.317 386.898V437.939C53.317 439.893 55.546 441.477 58.293 441.479H293.131C295.878 441.479 298.104 439.893 298.107 437.939V386.9C298.107 384.946 295.878 383.362 293.131 383.36L58.293 383.358Z" fill="#3F3D56"/>
<path id="Vector_2" d="M92.6647 431.012C103.158 431.012 111.665 422.505 111.665 412.012C111.665 401.518 103.158 393.012 92.6647 393.012C82.1713 393.012 73.6647 401.518 73.6647 412.012C73.6647 422.505 82.1713 431.012 92.6647 431.012Z" fill="#6C63FF"/>
<path id="Path 40" d="M133.705 398.387C132.754 398.403 131.847 398.792 131.18 399.47C130.514 400.148 130.14 401.061 130.14 402.012C130.14 402.963 130.514 403.875 131.18 404.553C131.847 405.231 132.754 405.62 133.705 405.636H269.583C270.542 405.649 271.468 405.282 272.157 404.613C272.846 403.945 273.242 403.031 273.258 402.071C273.273 401.111 272.908 400.184 272.241 399.494C271.575 398.803 270.661 398.405 269.702 398.387C269.662 398.386 269.622 398.386 269.583 398.387H133.705Z" fill="#3F3D56"/>
<path id="Path 40_2" d="M133.705 418.387C132.754 418.403 131.847 418.792 131.18 419.47C130.514 420.148 130.14 421.061 130.14 422.012C130.14 422.963 130.514 423.875 131.18 424.553C131.847 425.231 132.754 425.62 133.705 425.636H269.583C270.542 425.649 271.468 425.282 272.157 424.613C272.846 423.945 273.242 423.031 273.258 422.071C273.273 421.111 272.908 420.184 272.241 419.494C271.575 418.803 270.661 418.405 269.702 418.387C269.662 418.386 269.622 418.386 269.583 418.387H133.705Z" fill="#3F3D56"/>
</g>
<g id="mono4">
<path id="Vector_3" d="M542 523.459C580.66 523.459 612 521.069 612 518.12C612 515.172 580.66 512.781 542 512.781C503.34 512.781 472 515.172 472 518.12C472 521.069 503.34 523.459 542 523.459Z" fill="#E6E6E6"/>
<path id="Vector_4" d="M543.973 500.118C567.758 500.118 587.04 480.836 587.04 457.051C587.04 433.265 567.758 413.983 543.973 413.983C520.188 413.983 500.906 433.265 500.906 457.051C500.906 480.836 520.188 500.118 543.973 500.118Z" fill="#2F2E41"/>
<path id="Vector_5" d="M563.599 490.85H550.515V514.292H563.599V490.85Z" fill="#2F2E41"/>
<path id="Vector_6" d="M537.431 490.85H524.347V514.292H537.431V490.85Z" fill="#2F2E41"/>
<path id="Vector_7" d="M552.695 518.653C558.717 518.653 563.599 516.823 563.599 514.565C563.599 512.307 558.717 510.476 552.695 510.476C546.674 510.476 541.792 512.307 541.792 514.565C541.792 516.823 546.674 518.653 552.695 518.653Z" fill="#2F2E41"/>
<path id="Vector_8" d="M526.528 518.108C532.55 518.108 537.431 516.278 537.431 514.02C537.431 511.761 532.55 509.931 526.528 509.931C520.506 509.931 515.625 511.761 515.625 514.02C515.625 516.278 520.506 518.108 526.528 518.108Z" fill="#2F2E41"/>
<path id="Vector_9" d="M542.883 460.867C551.012 460.867 557.602 454.277 557.602 446.148C557.602 438.019 551.012 431.428 542.883 431.428C534.753 431.428 528.163 438.019 528.163 446.148C528.163 454.277 534.753 460.867 542.883 460.867Z" fill="white"/>
<path id="Vector_10" d="M542.883 451.054C545.592 451.054 547.789 448.857 547.789 446.148C547.789 443.438 545.592 441.241 542.883 441.241C540.173 441.241 537.976 443.438 537.976 446.148C537.976 448.857 540.173 451.054 542.883 451.054Z" fill="#3F3D56"/>
<path id="Vector_11" d="M585.75 416.999C589.227 401.426 578.111 385.689 560.921 381.851C543.731 378.012 526.977 387.526 523.499 403.1C520.022 418.673 531.414 424.417 548.604 428.256C565.794 432.094 582.272 432.573 585.75 416.999Z" fill="#594FFF"/>
</g>
<g id="mono3">
<path id="Vector_12" d="M215.983 432.942C220.229 421.833 220.844 411.747 217.357 410.414C213.869 409.081 207.6 417.006 203.354 428.115C199.108 439.224 198.493 449.31 201.98 450.643C205.468 451.976 211.737 444.051 215.983 432.942Z" fill="#2F2E41"/>
<path id="Vector_13" d="M212.373 469.95C216.183 446.471 200.238 424.35 176.76 420.54C153.282 416.73 131.16 432.674 127.35 456.152C123.54 479.631 139.484 501.752 162.963 505.562C186.441 509.372 208.563 493.428 212.373 469.95Z" fill="#2F2E41"/>
<path id="Vector_14" d="M163.319 496.851H150.236V520.292H163.319V496.851Z" fill="#2F2E41"/>
<path id="Vector_15" d="M189.487 496.851H176.403V520.292H189.487V496.851Z" fill="#2F2E41"/>
<path id="Vector_16" d="M128.085 422.999C124.607 407.426 135.723 391.689 152.913 387.851C170.103 384.012 186.857 393.526 190.335 409.099C193.812 424.673 182.42 430.417 165.23 434.255C148.04 438.094 131.562 438.573 128.085 422.999Z" fill="#6C63FF"/>
<path id="Vector_17" d="M140.809 452.295C142.409 448.922 134.995 442.056 124.25 436.96C113.505 431.863 103.497 430.466 101.897 433.84C100.297 437.213 107.711 444.079 118.456 449.175C129.202 454.272 139.21 455.669 140.809 452.295Z" fill="#2F2E41"/>
<path id="Vector_18" d="M174 533.528C212.66 533.528 244 531.138 244 528.189C244 525.241 212.66 522.85 174 522.85C135.34 522.85 104 525.241 104 528.189C104 531.138 135.34 533.528 174 533.528Z" fill="#E6E6E6"/>
<path id="Vector_19" d="M158.261 528.722C164.283 528.722 169.164 526.892 169.164 524.634C169.164 522.376 164.283 520.545 158.261 520.545C152.24 520.545 147.358 522.376 147.358 524.634C147.358 526.892 152.24 528.722 158.261 528.722Z" fill="#2F2E41"/>
<path id="Vector_20" d="M184.429 528.177C190.45 528.177 195.332 526.347 195.332 524.089C195.332 521.831 190.45 520 184.429 520C178.407 520 173.526 521.831 173.526 524.089C173.526 526.347 178.407 528.177 184.429 528.177Z" fill="#2F2E41"/>
</g>
<g id="mono1">
<path id="Vector_21" d="M166.31 127.96C166.321 134.563 164.805 141.08 161.88 147C161.55 147.68 161.2 148.34 160.83 149H85.66C85.29 148.34 84.94 147.68 84.61 147C81.7402 141.181 80.222 134.789 80.1689 128.301C80.1158 121.813 81.5292 115.397 84.3035 109.532C87.0778 103.667 91.1412 98.5041 96.1905 94.4296C101.24 90.3551 107.144 87.474 113.463 86.0014C119.782 84.5288 126.352 84.5028 132.682 85.9253C139.012 87.3478 144.939 90.1821 150.021 94.2165C155.102 98.2509 159.206 103.381 162.027 109.224C164.848 115.067 166.312 121.472 166.31 127.96V127.96Z" fill="#2F2E41"/>
<path id="Vector_22" d="M117.336 131.771C125.465 131.771 132.055 125.181 132.055 117.052C132.055 108.923 125.465 102.333 117.336 102.333C109.207 102.333 102.617 108.923 102.617 117.052C102.617 125.181 109.207 131.771 117.336 131.771Z" fill="white"/>
<path id="Vector_23" d="M117.336 121.959C120.046 121.959 122.243 119.762 122.243 117.052C122.243 114.343 120.046 112.146 117.336 112.146C114.627 112.146 112.43 114.343 112.43 117.052C112.43 119.762 114.627 121.959 117.336 121.959Z" fill="#3F3D56"/>
<path id="Vector_24" d="M82.4692 88.904C78.9917 73.3302 90.1078 57.5936 107.298 53.7552C124.488 49.9169 141.242 59.4303 144.719 75.0041C148.197 90.5779 136.805 96.3218 119.615 100.16C102.425 103.998 85.9467 104.478 82.4692 88.904Z" fill="#6C63FF"/>
<path id="Vector_25" d="M186 16H62C60.6741 16.0005 59.4026 16.5274 58.465 17.465C57.5274 18.4026 57.0005 19.6741 57 21V145C57.0005 146.326 57.5274 147.597 58.465 148.535C59.4026 149.473 60.6741 150 62 150H186C187.326 150 188.597 149.473 189.535 148.535C190.473 147.597 191 146.326 191 145V21C191 19.6741 190.473 18.4026 189.535 17.465C188.597 16.5274 187.326 16.0005 186 16V16ZM189 145C188.998 145.795 188.681 146.557 188.119 147.119C187.557 147.681 186.795 147.998 186 148H62C61.2051 147.998 60.4434 147.681 59.8813 147.119C59.3192 146.557 59.0023 145.795 59 145V21C59.0023 20.2051 59.3191 19.4434 59.8813 18.8813C60.4434 18.3191 61.2051 18.0023 62 18H186C186.795 18.0023 187.557 18.3191 188.119 18.8813C188.681 19.4434 188.998 20.2051 189 21V145Z" fill="#3F3D56"/>
</g>
<g id="cuadro1">
<path id="Vector_26" d="M328.397 283.839C338.86 283.047 346.701 273.923 345.909 263.459C345.117 252.996 335.993 245.155 325.529 245.947C315.066 246.739 307.225 255.864 308.017 266.327C308.809 276.791 317.933 284.631 328.397 283.839Z" fill="#6C63FF"/>
<path id="Path 40_3" d="M366.858 248.21C365.911 248.298 365.036 248.754 364.422 249.48C363.809 250.207 363.505 251.145 363.577 252.093C363.648 253.042 364.09 253.924 364.806 254.55C365.522 255.175 366.455 255.495 367.405 255.439L502.895 245.184C503.853 245.125 504.749 244.688 505.385 243.97C506.022 243.251 506.347 242.31 506.291 241.352C506.234 240.394 505.799 239.497 505.083 238.859C504.366 238.22 503.425 237.892 502.467 237.947C502.427 237.949 502.388 237.952 502.348 237.956L366.858 248.21Z" fill="#3F3D56"/>
<path id="Path 40_4" d="M368.367 268.153C367.42 268.241 366.546 268.697 365.932 269.423C365.318 270.15 365.014 271.088 365.086 272.036C365.158 272.985 365.599 273.867 366.315 274.493C367.032 275.118 367.965 275.438 368.914 275.382L504.405 265.127C505.363 265.068 506.258 264.631 506.895 263.913C507.531 263.194 507.857 262.253 507.8 261.295C507.743 260.337 507.309 259.44 506.592 258.802C505.875 258.163 504.935 257.835 503.976 257.89C503.937 257.892 503.897 257.895 503.858 257.899L368.367 268.153Z" fill="#3F3D56"/>
<path id="Path 78_2" d="M535.167 280.891L300.999 298.614C296.434 298.959 292.535 296.604 292.285 293.357L288.432 242.46C288.192 239.212 291.692 236.297 296.257 235.951L530.425 218.228C534.99 217.883 538.889 220.238 539.139 223.485L542.991 274.381C543.233 277.629 539.732 280.541 535.167 280.891ZM296.434 238.302C293.695 238.51 291.595 240.259 291.74 242.208L295.592 293.103C295.739 295.052 298.081 296.463 300.821 296.258L534.989 278.535C537.728 278.327 539.828 276.578 539.684 274.629L535.832 223.736C535.684 221.787 533.342 220.376 530.603 220.581L296.434 238.302Z" fill="#3F3D56"/>
</g>
<g id="mono2">
<path id="Vector_27" d="M556.792 367.242C579.995 367.242 598.804 348.432 598.804 325.229C598.804 302.027 579.995 283.217 556.792 283.217C533.589 283.217 514.78 302.027 514.78 325.229C514.78 348.432 533.589 367.242 556.792 367.242Z" fill="#2F2E41"/>
<path id="Vector_28" d="M576.09 358.112L563.327 358.171L563.433 381.038L576.196 380.979L576.09 358.112Z" fill="#2F2E41"/>
<path id="Vector_29" d="M550.564 358.23L537.8 358.29L537.907 381.157L550.67 381.098L550.564 358.23Z" fill="#2F2E41"/>
<path id="Vector_30" d="M555.679 328.957C563.609 328.957 570.037 322.529 570.037 314.599C570.037 306.668 563.609 300.24 555.679 300.24C547.749 300.24 541.32 306.668 541.32 314.599C541.32 322.529 547.749 328.957 555.679 328.957Z" fill="white"/>
<path id="Vector_31" d="M550.76 313.292C553.404 313.292 555.547 311.149 555.547 308.506C555.547 305.862 553.404 303.719 550.76 303.719C548.117 303.719 545.974 305.862 545.974 308.506C545.974 311.149 548.117 313.292 550.76 313.292Z" fill="#3F3D56"/>
<path id="Vector_32" d="M597.363 285.97C600.685 270.762 589.77 255.462 572.984 251.795C556.198 248.129 539.897 257.485 536.575 272.693C533.254 287.901 544.393 293.453 561.179 297.119C577.965 300.785 594.042 301.178 597.363 285.97Z" fill="#6C63FF"/>
<path id="Vector_33" d="M532.266 312.135C533.684 308.78 526.17 302.4 515.483 297.884C504.796 293.369 494.984 292.428 493.567 295.783C492.149 299.138 499.663 305.518 510.35 310.034C521.037 314.549 530.849 315.489 532.266 312.135Z" fill="#2F2E41"/>
<path id="Vector_34" d="M618.103 346.954C619.521 343.599 612.006 337.219 601.32 332.704C590.633 328.189 580.821 327.248 579.403 330.603C577.986 333.958 585.5 340.338 596.187 344.853C606.873 349.368 616.686 350.309 618.103 346.954Z" fill="#2F2E41"/>
<path id="Vector_35" d="M565.282 343.537C565.29 344.795 565.05 346.042 564.576 347.207C564.102 348.372 563.403 349.432 562.519 350.327C561.635 351.222 560.584 351.933 559.424 352.421C558.265 352.91 557.021 353.164 555.764 353.172C554.506 353.179 553.259 352.938 552.095 352.463C550.93 351.988 549.87 351.288 548.976 350.403C548.082 349.519 547.372 348.466 546.884 347.307C546.397 346.147 546.143 344.903 546.137 343.645L546.137 343.626C546.113 338.34 550.393 337.225 555.68 337.2C560.967 337.176 565.257 338.251 565.282 343.537Z" fill="white"/>
<path id="Vector_36" d="M544.207 384.367C549.28 381.406 552.493 377.464 551.383 375.561C550.273 373.659 545.26 374.516 540.186 377.477C535.113 380.438 531.9 384.38 533.01 386.283C534.121 388.185 539.133 387.327 544.207 384.367Z" fill="#2F2E41"/>
<path id="Vector_37" d="M569.201 384.251C574.275 381.29 577.487 377.347 576.377 375.445C575.267 373.542 570.254 374.4 565.181 377.361C560.107 380.321 556.894 384.264 558.005 386.166C559.115 388.069 564.128 387.211 569.201 384.251Z" fill="#2F2E41"/>
</g>
<g id="logo" clip-path="url(#clip1)">
<g id="DESIGNER">
<mask id="path-44-outside-1" maskUnits="userSpaceOnUse" x="274" y="69" width="317" height="78" fill="black">
<rect fill="white" x="274" y="69" width="317" height="78"/>
<path d="M292.874 125.834L293.324 121.735C293.324 118.906 291.081 117.491 286.594 117.491C285.823 117.491 285.287 117.732 284.987 118.213C284.687 118.694 284.537 119.512 284.537 120.667C284.537 121.821 284.665 123.419 284.922 125.459C285.18 127.518 285.308 129.086 285.308 130.164C285.308 131.261 284.987 131.81 284.344 131.81C283.701 131.81 283.379 131.232 283.379 130.078C283.379 128.942 283.479 127.22 283.679 124.91C283.879 122.601 283.979 121.032 283.979 120.205C283.979 118.242 283.715 117.26 283.186 117.26C282.843 117.26 282.672 117.809 282.672 118.906L283.186 123.698C283.186 124.833 282.879 125.401 282.265 125.401C281.664 125.401 281.364 124.824 281.364 123.669L281.857 118.357L281.836 113.565V82.59C281.836 81.3968 281.557 80.4345 281 79.7032L281.429 79.097C282.015 79.8668 282.729 80.2517 283.572 80.2517H301.276C309.821 80.2517 315.122 83.9949 317.18 91.4813C317.751 93.5983 318.037 95.8596 318.037 98.2652C318.037 100.652 317.923 102.711 317.694 104.443C317.48 106.156 317.201 107.667 316.858 108.975C316.515 110.265 316.03 111.41 315.401 112.41C314.786 113.411 314.165 114.258 313.536 114.951C312.922 115.624 312.136 116.202 311.178 116.683C310.221 117.164 309.335 117.539 308.521 117.809C307.706 118.059 306.685 118.251 305.456 118.386C303.527 118.598 301.262 118.704 298.661 118.704H295.553C294.353 118.704 293.753 119.858 293.753 122.168L294.096 125.863C294.096 126.594 293.91 126.96 293.539 126.96C293.096 126.96 292.874 126.585 292.874 125.834ZM305.156 105.973C305.599 105.203 305.942 104.212 306.184 103C306.427 101.768 306.549 100.296 306.549 98.5828C306.549 96.8507 306.335 95.4073 305.906 94.2526C305.477 93.0979 304.906 92.2511 304.191 91.7122C303.477 91.1734 302.684 90.7788 301.812 90.5286C300.94 90.2592 300.026 90.1149 299.069 90.0956C298.111 90.0571 297.218 90.0283 296.389 90.009C294.36 89.9705 293.06 89.5664 292.488 88.7966L292.06 89.3739C292.603 90.086 292.874 91.0483 292.874 92.2607V98.9003C292.874 103.327 292.888 106.637 292.917 108.831H297.783C300.226 108.831 301.955 108.542 302.969 107.965C303.998 107.387 304.727 106.724 305.156 105.973ZM294.246 136.053C294.246 136.939 294.003 137.381 293.517 137.381C293.046 137.381 292.81 137.015 292.81 136.284C292.81 135.572 292.838 134.947 292.896 134.408C292.967 133.869 293.081 133.176 293.239 132.329C293.396 131.502 293.489 130.982 293.517 130.77C293.56 131.021 293.639 131.434 293.753 132.012C293.867 132.608 293.953 133.07 294.01 133.397C294.167 134.302 294.246 135.187 294.246 136.053Z"/>
<path d="M335.763 113.912L335.42 110.332V110.014C335.72 109.302 336.127 108.946 336.642 108.946L354.131 108.975C355.003 108.975 355.71 108.6 356.253 107.849L356.682 108.427C355.882 110.409 355.482 113.998 355.482 119.194C355.482 120.003 355.61 121.562 355.868 123.871C356.139 126.2 356.275 127.739 356.275 128.49C356.275 129.26 356.182 129.827 355.996 130.193C355.81 130.559 355.589 130.742 355.332 130.742C355.074 130.742 354.846 130.539 354.646 130.135C354.46 129.731 354.367 129.173 354.367 128.461L354.71 122.081C354.71 120.388 354.489 119.117 354.046 118.271C353.603 117.405 353.003 116.972 352.245 116.972C350.545 116.972 349.695 118.694 349.695 122.139C349.695 123.467 349.838 125.391 350.123 127.912C350.423 130.434 350.573 132.012 350.573 132.647C350.573 133.282 350.466 133.763 350.252 134.09C350.038 134.437 349.788 134.61 349.502 134.61C349.23 134.61 348.987 134.446 348.773 134.119C348.573 133.811 348.473 133.388 348.473 132.849L348.859 123.64C348.859 120.272 348.323 118.588 347.251 118.588L345.622 118.646H328.775C327.504 118.646 326.568 118.973 325.968 119.627C325.282 120.397 324.939 122.572 324.939 126.152C324.939 127.595 325.103 129.722 325.432 132.531C325.76 135.36 325.925 137.487 325.925 138.911C325.925 140.97 325.382 142 324.296 142C323.124 142 322.538 140.942 322.538 138.825C322.538 137.381 322.774 135.245 323.246 132.416C323.717 129.587 323.953 127.441 323.953 125.978L323.846 116.308V82.6477C323.846 81.4545 323.574 80.5019 323.031 79.7898L323.46 79.1836C324.046 79.9341 324.76 80.3094 325.603 80.3094H353.124C353.996 80.3094 354.71 79.9341 355.267 79.1836L355.696 79.7898C355.067 80.6366 354.753 82.2917 354.753 84.7551V86.0541C354.753 88.2288 355.067 89.7203 355.696 90.5286L355.267 91.0771C354.553 90.0956 352.874 89.6049 350.23 89.6049L339.578 90.2688C336.949 90.2688 335.277 89.7781 334.563 88.7966L334.112 89.3739C334.67 90.1052 334.948 91.0771 334.948 92.2896C334.948 93.4828 334.67 94.445 334.112 95.1764L334.563 95.7249C335.248 94.7626 336.692 94.2815 338.892 94.2815L347.873 94.9454C350.088 94.9454 351.552 94.4643 352.267 93.502L352.717 94.0794C352.088 94.9262 351.774 96.6967 351.774 99.3911V100.517C351.774 102.576 352.088 104.029 352.717 104.876L352.267 105.482C351.581 104.52 350.13 104.039 347.916 104.039L338.935 104.674C336.734 104.674 335.277 104.193 334.563 103.23L334.134 103.808C334.734 104.635 335.034 106.079 335.034 108.138L334.991 110.39L334.627 113.854C334.627 114.547 334.813 114.893 335.184 114.893C335.57 114.893 335.763 114.566 335.763 113.912Z"/>
<path d="M375.051 127.133L375.265 124.217V118.819C371.421 118.55 368.549 117.847 366.649 116.712C364.748 115.557 363.348 114.114 362.448 112.382C361.905 111.362 361.483 110.226 361.183 108.975C360.897 107.705 360.419 106.752 359.747 106.117L360.069 105.511C360.712 106.088 361.405 106.377 362.148 106.377C362.905 106.377 363.869 106.339 365.041 106.262C366.213 106.185 367.535 106.098 369.006 106.002C370.478 105.886 371.528 105.809 372.157 105.771C372.786 105.732 373.25 105.617 373.55 105.424C373.85 105.213 374.065 104.837 374.193 104.299L375.158 104.732C375.115 104.886 375.093 105.088 375.093 105.338C375.093 105.973 375.486 106.695 376.272 107.503C377.058 108.311 378.48 108.715 380.538 108.715C381.924 108.715 382.91 108.398 383.495 107.763C383.753 107.474 383.881 107.128 383.881 106.723C383.881 105.78 383.495 105.155 382.724 104.847C381.952 104.539 381.016 104.279 379.916 104.068C378.83 103.837 377.737 103.654 376.637 103.519C375.551 103.384 374.372 103.192 373.1 102.942C371.828 102.692 370.628 102.422 369.499 102.134C368.37 101.826 367.27 101.383 366.199 100.806C365.141 100.228 364.234 99.5547 363.476 98.7848C362.719 97.9958 362.105 96.995 361.633 95.7826C361.176 94.5509 360.947 93.1556 360.947 91.5968C360.947 90.0379 361.126 88.6137 361.483 87.3243C361.855 86.0349 362.355 84.9283 362.983 84.0045C363.612 83.0807 364.37 82.2628 365.255 81.5507C366.156 80.8387 367.092 80.2613 368.063 79.8187C369.049 79.376 370.121 79.02 371.278 78.7506C373.293 78.2502 375.193 78 376.98 78C378.766 78 380.123 78.0385 381.052 78.1155C381.995 78.1732 383.095 78.2983 384.353 78.4908C385.625 78.664 386.768 78.9623 387.782 79.3857C388.811 79.7898 389.825 80.3094 390.826 80.9445C392.912 82.2532 394.377 84.2836 395.22 87.0356C395.563 88.0171 396.034 88.9313 396.634 89.7781L396.356 90.442C395.755 89.8839 395.062 89.6049 394.277 89.6049H393.998C392.855 89.6626 391.219 89.7781 389.09 89.9513C386.975 90.1052 385.61 90.2015 384.996 90.24C384.396 90.2785 383.96 90.3939 383.688 90.5864C383.431 90.7788 383.245 91.1445 383.131 91.6834L382.188 91.3369C382.231 91.1637 382.252 90.9809 382.252 90.7885C382.252 89.9802 381.766 89.2873 380.795 88.71C379.823 88.1134 378.723 87.8151 377.494 87.8151C375.093 87.8151 373.893 88.4502 373.893 89.7203C373.893 90.8558 375.694 91.6834 379.294 92.203C380.138 92.3377 381.095 92.4724 382.167 92.6071C385.896 93.1267 388.754 93.81 390.74 94.6567C394.912 96.4273 396.999 99.8048 396.999 104.789C396.999 106.829 396.684 108.667 396.056 110.303C395.427 111.92 394.605 113.238 393.591 114.258C392.59 115.278 391.404 116.125 390.033 116.798C387.561 118.011 384.739 118.617 381.566 118.617C380.709 118.617 380.202 118.607 380.045 118.588C379.273 118.588 378.887 119.387 378.887 120.984V121.677C378.887 122.197 378.98 122.957 379.166 123.958C379.366 124.978 379.466 125.738 379.466 126.238C379.466 127.258 379.202 127.768 378.673 127.768C378.401 127.768 378.187 127.614 378.03 127.306C377.887 126.998 377.816 126.613 377.816 126.152C377.816 125.69 377.901 124.901 378.073 123.784C378.258 122.687 378.351 121.889 378.351 121.388C378.351 120.888 378.344 120.532 378.33 120.32C378.33 120.128 378.308 119.878 378.266 119.57C378.237 119.281 378.18 119.069 378.094 118.935C377.894 118.588 377.551 118.415 377.065 118.415C376.179 118.415 375.736 119.454 375.736 121.533L375.865 126.267C375.865 127.537 375.729 128.172 375.458 128.172C375.186 128.172 375.051 127.826 375.051 127.133Z"/>
<path d="M412.859 134.263L413.095 126.585C413.095 124.102 413.024 122.533 412.881 121.879C412.752 121.225 412.617 120.647 412.474 120.147C412.331 119.647 412.145 119.243 411.916 118.935C411.688 118.627 411.416 118.338 411.102 118.069C410.502 117.53 409.559 117.26 408.273 117.26C406.987 117.26 405.901 117.963 405.015 119.368C404.143 120.773 403.707 122.456 403.707 124.419C403.707 125.151 403.814 126.238 404.029 127.682C404.243 129.144 404.35 130.241 404.35 130.972C404.35 132.358 403.986 133.051 403.257 133.051C402.528 133.051 402.164 132.377 402.164 131.03C402.164 130.28 402.271 129.154 402.486 127.653C402.714 126.152 402.829 125.016 402.829 124.246L402.979 116.51V82.59C402.979 81.3968 402.7 80.4345 402.143 79.7032L402.571 79.097C403.171 79.8668 403.886 80.2517 404.715 80.2517H412.474C413.331 80.2517 414.045 79.8668 414.617 79.097L415.046 79.7032C414.488 80.4538 414.21 81.416 414.21 82.59V116.365C414.21 117.366 414.131 119.089 413.974 121.533C413.817 123.996 413.767 125.892 413.824 127.22H413.803C414.331 130.414 414.596 132.849 414.596 134.523C414.596 136.198 414.36 137.035 413.888 137.035C413.202 137.035 412.859 136.111 412.859 134.263Z"/>
<path d="M447.025 109.755C446.482 109.177 446.21 108.504 446.21 107.734V107.503C446.21 106.733 446.467 106.002 446.982 105.309L446.682 104.934C446.167 105.627 445.631 105.973 445.074 105.973H442.995C442.123 105.973 441.409 106.348 440.852 107.099L440.402 106.493C440.973 105.723 441.259 104.77 441.259 103.635V99.3622C441.259 98.2075 440.973 97.2452 440.402 96.4754L440.852 95.8981C441.395 96.6294 442.109 96.995 442.995 96.995H456.155C457.041 96.995 457.756 96.6294 458.299 95.8981L458.706 96.4754C458.163 97.2067 457.891 98.169 457.891 99.3622V111.458C457.891 112.054 457.949 112.536 458.063 112.901C458.191 113.248 458.442 113.556 458.813 113.825L458.47 114.662C458.213 114.489 457.92 114.402 457.591 114.402C457.277 114.402 456.913 114.585 456.498 114.951C453.183 117.934 448.468 119.608 442.352 119.974V122.745L442.695 125.949C442.695 126.411 442.624 126.767 442.481 127.018C442.338 127.268 442.173 127.393 441.988 127.393C441.816 127.393 441.659 127.277 441.516 127.046C441.373 126.816 441.302 126.585 441.302 126.354C441.302 126.142 441.33 125.844 441.388 125.459C441.559 124.266 441.645 123.053 441.645 121.821C441.645 120.59 441.58 119.974 441.452 119.974C438.651 119.974 435.708 119.714 432.621 119.194C432.493 119.137 432.428 120.166 432.428 122.283C432.428 124.4 432.557 126.585 432.814 128.836C433.086 131.088 433.221 132.656 433.221 133.542C433.221 135.332 432.814 136.226 432 136.226C431.614 136.226 431.278 136.024 430.992 135.62C430.721 135.216 430.585 134.562 430.585 133.657C430.585 132.772 430.821 131.175 431.292 128.865C431.764 126.575 432 124.785 432 123.496V118.992C423.841 116.529 419.761 109.899 419.761 99.1024C419.761 90.8847 422.276 85.14 427.306 81.8683C430.206 79.963 433.75 79.0104 437.937 79.0104C444.695 79.0104 449.882 80.7906 453.498 84.3509C455.455 86.2754 456.705 88.4694 457.248 90.9328C457.506 92.0875 457.963 92.9728 458.62 93.5886L458.299 94.166C457.713 93.5886 456.941 93.3 455.984 93.3L446.939 93.7041C446.039 93.7811 445.431 94.243 445.117 95.0898L444.41 94.6279C444.524 94.3007 444.581 93.9254 444.581 93.502C444.581 93.0786 444.338 92.4339 443.852 91.5679C443.367 90.6826 442.695 90.0186 441.838 89.576C440.995 89.1141 439.873 88.8832 438.473 88.8832C437.087 88.8832 435.958 89.1526 435.086 89.6915C434.214 90.2303 433.521 90.9713 433.007 91.9143C432.007 93.8196 431.507 96.3407 431.507 99.4777C431.507 102.615 432.25 105.203 433.736 107.243C435.236 109.264 437.194 110.274 439.609 110.274C442.023 110.274 443.86 110.063 445.117 109.639C445.346 109.562 445.567 109.524 445.781 109.524C445.996 109.524 446.324 109.755 446.767 110.217L447.025 109.755Z"/>
<path d="M472.295 127.653L472.809 119.829C472.809 119.214 472.552 118.704 472.038 118.3C471.195 117.664 470.166 117.347 468.951 117.347C467.322 117.347 466.201 117.78 465.586 118.646C465.315 119.031 465.179 119.589 465.179 120.32C465.179 121.071 465.343 122.37 465.672 124.217C466 126.065 466.165 127.364 466.165 128.115C466.165 128.884 466.058 129.491 465.843 129.933C465.643 130.395 465.343 130.626 464.943 130.626C464.543 130.626 464.236 130.395 464.021 129.933C463.807 129.491 463.7 128.884 463.7 128.115C463.7 127.345 463.871 126.017 464.214 124.131C464.572 122.245 464.75 120.821 464.75 119.858L464.729 84.4664C464.729 82.1955 464.214 80.2998 463.186 78.7794L463.636 78.1732C464.793 79.5589 466.201 80.2517 467.858 80.2517H474.267C475.181 80.2517 475.953 80.1074 476.582 79.8187C477.225 79.5108 477.739 78.9141 478.125 78.0289L478.832 78.4908C478.461 79.684 478.275 80.8098 478.275 81.8683C478.275 82.7343 479.404 84.909 481.661 88.3924C484.605 92.9343 486.498 95.9847 487.341 97.5435C488.184 99.1024 488.734 100.363 488.992 101.325H490.278C489.577 99.9396 489.227 97.9862 489.227 95.465C489.227 94.2911 489.335 92.5398 489.549 90.2111C489.763 87.8632 489.87 86.1022 489.87 84.9283C489.87 81.7721 489.127 79.7224 487.641 78.7794L488.091 78.1732C489.249 79.5589 490.656 80.2517 492.314 80.2517H496.708C498.365 80.2517 499.773 79.5589 500.93 78.1732L501.359 78.7794C500.344 80.319 499.837 82.2147 499.837 84.4664L499.794 119.714C499.794 120.542 499.937 121.773 500.223 123.409C500.509 125.064 500.651 126.306 500.651 127.133C500.651 128.365 500.301 128.981 499.601 128.981C498.901 128.981 498.551 128.365 498.551 127.133C498.551 126.325 498.687 125.132 498.958 123.553C499.23 121.995 499.365 120.917 499.365 120.32C499.365 119.743 499.223 119.329 498.937 119.079C498.651 118.829 498.372 118.704 498.101 118.704H489.635C488.434 118.704 487.834 120.176 487.834 123.12C487.834 124.333 487.998 126.084 488.327 128.374C488.67 130.684 488.842 132.425 488.842 133.599C488.842 135.274 488.377 136.111 487.448 136.111C486.52 136.111 486.055 135.264 486.055 133.571C486.055 132.493 486.234 130.924 486.591 128.865C486.963 126.806 487.155 125.257 487.17 124.217L487.213 120.378C487.255 118.588 487.12 117.424 486.805 116.885L476.539 99.3622C476.267 98.8811 475.967 97.8803 475.638 96.3599L474.331 96.4177C475.074 97.4569 475.446 98.6116 475.446 99.8818V116.365L475.853 130.972C475.853 131.28 475.781 131.54 475.638 131.752C475.51 131.983 475.324 132.098 475.081 132.098C474.853 132.098 474.66 131.964 474.502 131.694C474.345 131.444 474.267 131.155 474.267 130.828L474.524 119.743C474.524 119.512 474.46 119.3 474.331 119.108C474.202 118.915 474.052 118.819 473.881 118.819C473.509 118.819 473.324 119.204 473.324 119.974C473.324 120.744 473.416 122.004 473.602 123.756C473.802 125.507 473.902 126.71 473.902 127.364C473.902 128.827 473.631 129.558 473.088 129.558C472.559 129.558 472.295 128.923 472.295 127.653Z"/>
<path d="M519.32 113.912L518.977 110.332V110.014C519.277 109.302 519.684 108.946 520.199 108.946L537.689 108.975C538.56 108.975 539.268 108.6 539.811 107.849L540.239 108.427C539.439 110.409 539.039 113.998 539.039 119.194C539.039 120.003 539.168 121.562 539.425 123.871C539.696 126.2 539.832 127.739 539.832 128.49C539.832 129.26 539.739 129.827 539.553 130.193C539.368 130.559 539.146 130.742 538.889 130.742C538.632 130.742 538.403 130.539 538.203 130.135C538.017 129.731 537.924 129.173 537.924 128.461L538.267 122.081C538.267 120.388 538.046 119.117 537.603 118.271C537.16 117.405 536.56 116.972 535.803 116.972C534.102 116.972 533.252 118.694 533.252 122.139C533.252 123.467 533.395 125.391 533.681 127.912C533.981 130.434 534.131 132.012 534.131 132.647C534.131 133.282 534.024 133.763 533.809 134.09C533.595 134.437 533.345 134.61 533.059 134.61C532.788 134.61 532.545 134.446 532.33 134.119C532.13 133.811 532.03 133.388 532.03 132.849L532.416 123.64C532.416 120.272 531.88 118.588 530.809 118.588L529.18 118.646H512.333C511.061 118.646 510.125 118.973 509.525 119.627C508.839 120.397 508.496 122.572 508.496 126.152C508.496 127.595 508.66 129.722 508.989 132.531C509.318 135.36 509.482 137.487 509.482 138.911C509.482 140.97 508.939 142 507.853 142C506.681 142 506.096 140.942 506.096 138.825C506.096 137.381 506.331 135.245 506.803 132.416C507.274 129.587 507.51 127.441 507.51 125.978L507.403 116.308V82.6477C507.403 81.4545 507.132 80.5019 506.589 79.7898L507.017 79.1836C507.603 79.9341 508.318 80.3094 509.161 80.3094H536.681C537.553 80.3094 538.267 79.9341 538.825 79.1836L539.253 79.7898C538.625 80.6366 538.31 82.2917 538.31 84.7551V86.0541C538.31 88.2288 538.625 89.7203 539.253 90.5286L538.825 91.0771C538.11 90.0956 536.431 89.6049 533.788 89.6049L523.135 90.2688C520.506 90.2688 518.834 89.7781 518.12 88.7966L517.67 89.3739C518.227 90.1052 518.506 91.0771 518.506 92.2896C518.506 93.4828 518.227 94.445 517.67 95.1764L518.12 95.7249C518.806 94.7626 520.249 94.2815 522.449 94.2815L531.43 94.9454C533.645 94.9454 535.11 94.4643 535.824 93.502L536.274 94.0794C535.645 94.9262 535.331 96.6967 535.331 99.3911V100.517C535.331 102.576 535.645 104.029 536.274 104.876L535.824 105.482C535.138 104.52 533.688 104.039 531.473 104.039L522.492 104.674C520.292 104.674 518.834 104.193 518.12 103.23L517.691 103.808C518.291 104.635 518.591 106.079 518.591 108.138L518.548 110.39L518.184 113.854C518.184 114.547 518.37 114.893 518.741 114.893C519.127 114.893 519.32 114.566 519.32 113.912Z"/>
<path d="M580.17 128.172L580.642 122.197C580.642 119.772 579.906 117.924 578.434 116.654C576.976 115.365 575.44 114.797 573.826 114.951C572.211 115.086 571.082 115.817 570.439 117.145C570.111 117.78 569.946 118.53 569.946 119.396L569.839 127.133C569.839 128.192 569.961 129.76 570.203 131.839C570.446 133.936 570.568 135.514 570.568 136.573C570.568 138.44 570.175 139.373 569.389 139.373C568.603 139.373 568.21 138.469 568.21 136.659C568.21 135.466 568.339 133.753 568.596 131.521C568.853 129.289 568.996 127.595 569.025 126.44C569.067 125.286 569.089 122.822 569.089 119.05C569.089 118.049 568.86 116.895 568.403 115.586C567.946 114.277 567.224 112.478 566.238 110.188C565.252 107.897 564.445 105.877 563.816 104.125L563.173 103.635C562.83 104.481 562.223 104.905 561.351 104.905L559.551 104.991C558.322 104.991 557.4 104.587 556.786 103.779L556.336 104.356C556.379 105.068 556.4 106.589 556.4 108.917L556.379 115.99C556.379 118.107 556.407 119.666 556.465 120.667L556.872 124.91C556.872 125.699 556.672 126.094 556.272 126.094C555.872 126.094 555.671 125.728 555.671 124.997L556.014 121.417C556.014 120.551 555.822 119.858 555.436 119.339C555.064 118.838 554.571 118.588 553.957 118.588C553.357 118.588 552.821 118.944 552.349 119.656C551.892 120.388 551.663 121.331 551.663 122.485C551.663 123.64 551.821 125.199 552.135 127.162C552.449 129.144 552.606 130.568 552.606 131.434C552.606 133.243 552.128 134.148 551.17 134.148C550.213 134.148 549.734 133.263 549.734 131.492C549.734 130.665 549.87 129.221 550.142 127.162C550.427 125.103 550.57 123.467 550.57 122.254C550.57 121.042 550.363 120.041 549.949 119.252C549.534 118.482 549.063 118.097 548.534 118.097C548.005 118.097 547.555 118.338 547.184 118.819C546.812 119.319 546.626 119.935 546.626 120.667L547.205 127.508C547.205 128.682 546.884 129.269 546.241 129.269C545.598 129.269 545.276 128.673 545.276 127.479C545.276 126.787 545.412 125.574 545.683 123.842C545.955 122.129 546.084 120.792 546.069 119.829C546.055 118.867 546.048 106.416 546.048 82.4745C546.048 81.2813 545.776 80.3287 545.233 79.6166L545.662 79.0392C546.219 79.7706 546.927 80.1362 547.784 80.1362H566.988C569.989 80.1362 572.004 80.2613 573.033 80.5115C574.076 80.7424 574.983 80.9926 575.755 81.2621C576.541 81.5315 577.198 81.8683 577.727 82.2724C578.27 82.6573 578.813 83.1481 579.356 83.7447C579.913 84.3221 580.356 84.986 580.684 85.7366C581.442 87.4494 581.82 89.2681 581.82 91.1926C581.82 93.1171 581.706 94.6952 581.478 95.9269C581.263 97.1394 580.899 98.2845 580.384 99.3622C579.27 101.691 577.312 102.855 574.512 102.855L574.34 103.519C575.24 104 575.84 104.664 576.141 105.511C577.398 109.206 578.327 111.554 578.927 112.555C579.527 113.536 580.084 114.325 580.599 114.922C581.113 115.519 581.849 116.125 582.806 116.741C583.764 117.356 584.342 117.761 584.543 117.953C584.743 118.126 584.843 118.271 584.843 118.386C584.843 120.311 585.035 122.784 585.421 125.805C585.807 128.827 586 130.77 586 131.636C586 132.502 585.971 133.128 585.914 133.513C585.871 133.898 585.764 134.273 585.593 134.639C585.421 135.024 585.171 135.216 584.843 135.216C584.514 135.216 584.264 134.899 584.092 134.263C583.935 133.628 583.857 132.849 583.857 131.925C583.857 131.001 583.95 129.346 584.135 126.96C584.321 124.593 584.414 122.803 584.414 121.59C584.414 119.185 583.835 117.982 582.678 117.982C582.106 117.982 581.678 118.117 581.392 118.386C581.12 118.656 580.985 119.204 580.985 120.032C580.985 120.878 581.113 122.216 581.37 124.044C581.628 125.873 581.756 127.249 581.756 128.172C581.756 129.115 581.492 129.587 580.963 129.587C580.434 129.587 580.17 129.115 580.17 128.172ZM565.895 89.7203L560.837 89.9224C558.765 89.9224 557.415 89.5086 556.786 88.6811L556.336 89.2296C556.907 89.9802 557.193 90.9424 557.193 92.1164V94.0505C557.193 95.2052 556.907 96.1675 556.336 96.9373L556.786 97.5147C557.4 96.6679 558.672 96.2445 560.601 96.2445L566.024 96.5043C567.467 96.5043 568.582 96.2541 569.368 95.7537C570.168 95.2341 570.568 94.2911 570.568 92.9247C570.568 92.0586 570.346 91.3851 569.903 90.9039C569.46 90.4035 568.925 90.086 568.296 89.9513C567.667 89.7973 566.867 89.7203 565.895 89.7203Z"/>
</mask>
<path d="M292.874 125.834L293.324 121.735C293.324 118.906 291.081 117.491 286.594 117.491C285.823 117.491 285.287 117.732 284.987 118.213C284.687 118.694 284.537 119.512 284.537 120.667C284.537 121.821 284.665 123.419 284.922 125.459C285.18 127.518 285.308 129.086 285.308 130.164C285.308 131.261 284.987 131.81 284.344 131.81C283.701 131.81 283.379 131.232 283.379 130.078C283.379 128.942 283.479 127.22 283.679 124.91C283.879 122.601 283.979 121.032 283.979 120.205C283.979 118.242 283.715 117.26 283.186 117.26C282.843 117.26 282.672 117.809 282.672 118.906L283.186 123.698C283.186 124.833 282.879 125.401 282.265 125.401C281.664 125.401 281.364 124.824 281.364 123.669L281.857 118.357L281.836 113.565V82.59C281.836 81.3968 281.557 80.4345 281 79.7032L281.429 79.097C282.015 79.8668 282.729 80.2517 283.572 80.2517H301.276C309.821 80.2517 315.122 83.9949 317.18 91.4813C317.751 93.5983 318.037 95.8596 318.037 98.2652C318.037 100.652 317.923 102.711 317.694 104.443C317.48 106.156 317.201 107.667 316.858 108.975C316.515 110.265 316.03 111.41 315.401 112.41C314.786 113.411 314.165 114.258 313.536 114.951C312.922 115.624 312.136 116.202 311.178 116.683C310.221 117.164 309.335 117.539 308.521 117.809C307.706 118.059 306.685 118.251 305.456 118.386C303.527 118.598 301.262 118.704 298.661 118.704H295.553C294.353 118.704 293.753 119.858 293.753 122.168L294.096 125.863C294.096 126.594 293.91 126.96 293.539 126.96C293.096 126.96 292.874 126.585 292.874 125.834ZM305.156 105.973C305.599 105.203 305.942 104.212 306.184 103C306.427 101.768 306.549 100.296 306.549 98.5828C306.549 96.8507 306.335 95.4073 305.906 94.2526C305.477 93.0979 304.906 92.2511 304.191 91.7122C303.477 91.1734 302.684 90.7788 301.812 90.5286C300.94 90.2592 300.026 90.1149 299.069 90.0956C298.111 90.0571 297.218 90.0283 296.389 90.009C294.36 89.9705 293.06 89.5664 292.488 88.7966L292.06 89.3739C292.603 90.086 292.874 91.0483 292.874 92.2607V98.9003C292.874 103.327 292.888 106.637 292.917 108.831H297.783C300.226 108.831 301.955 108.542 302.969 107.965C303.998 107.387 304.727 106.724 305.156 105.973ZM294.246 136.053C294.246 136.939 294.003 137.381 293.517 137.381C293.046 137.381 292.81 137.015 292.81 136.284C292.81 135.572 292.838 134.947 292.896 134.408C292.967 133.869 293.081 133.176 293.239 132.329C293.396 131.502 293.489 130.982 293.517 130.77C293.56 131.021 293.639 131.434 293.753 132.012C293.867 132.608 293.953 133.07 294.01 133.397C294.167 134.302 294.246 135.187 294.246 136.053Z" fill="#553795"/>
<path d="M335.763 113.912L335.42 110.332V110.014C335.72 109.302 336.127 108.946 336.642 108.946L354.131 108.975C355.003 108.975 355.71 108.6 356.253 107.849L356.682 108.427C355.882 110.409 355.482 113.998 355.482 119.194C355.482 120.003 355.61 121.562 355.868 123.871C356.139 126.2 356.275 127.739 356.275 128.49C356.275 129.26 356.182 129.827 355.996 130.193C355.81 130.559 355.589 130.742 355.332 130.742C355.074 130.742 354.846 130.539 354.646 130.135C354.46 129.731 354.367 129.173 354.367 128.461L354.71 122.081C354.71 120.388 354.489 119.117 354.046 118.271C353.603 117.405 353.003 116.972 352.245 116.972C350.545 116.972 349.695 118.694 349.695 122.139C349.695 123.467 349.838 125.391 350.123 127.912C350.423 130.434 350.573 132.012 350.573 132.647C350.573 133.282 350.466 133.763 350.252 134.09C350.038 134.437 349.788 134.61 349.502 134.61C349.23 134.61 348.987 134.446 348.773 134.119C348.573 133.811 348.473 133.388 348.473 132.849L348.859 123.64C348.859 120.272 348.323 118.588 347.251 118.588L345.622 118.646H328.775C327.504 118.646 326.568 118.973 325.968 119.627C325.282 120.397 324.939 122.572 324.939 126.152C324.939 127.595 325.103 129.722 325.432 132.531C325.76 135.36 325.925 137.487 325.925 138.911C325.925 140.97 325.382 142 324.296 142C323.124 142 322.538 140.942 322.538 138.825C322.538 137.381 322.774 135.245 323.246 132.416C323.717 129.587 323.953 127.441 323.953 125.978L323.846 116.308V82.6477C323.846 81.4545 323.574 80.5019 323.031 79.7898L323.46 79.1836C324.046 79.9341 324.76 80.3094 325.603 80.3094H353.124C353.996 80.3094 354.71 79.9341 355.267 79.1836L355.696 79.7898C355.067 80.6366 354.753 82.2917 354.753 84.7551V86.0541C354.753 88.2288 355.067 89.7203 355.696 90.5286L355.267 91.0771C354.553 90.0956 352.874 89.6049 350.23 89.6049L339.578 90.2688C336.949 90.2688 335.277 89.7781 334.563 88.7966L334.112 89.3739C334.67 90.1052 334.948 91.0771 334.948 92.2896C334.948 93.4828 334.67 94.445 334.112 95.1764L334.563 95.7249C335.248 94.7626 336.692 94.2815 338.892 94.2815L347.873 94.9454C350.088 94.9454 351.552 94.4643 352.267 93.502L352.717 94.0794C352.088 94.9262 351.774 96.6967 351.774 99.3911V100.517C351.774 102.576 352.088 104.029 352.717 104.876L352.267 105.482C351.581 104.52 350.13 104.039 347.916 104.039L338.935 104.674C336.734 104.674 335.277 104.193 334.563 103.23L334.134 103.808C334.734 104.635 335.034 106.079 335.034 108.138L334.991 110.39L334.627 113.854C334.627 114.547 334.813 114.893 335.184 114.893C335.57 114.893 335.763 114.566 335.763 113.912Z" fill="#553795"/>
<path d="M375.051 127.133L375.265 124.217V118.819C371.421 118.55 368.549 117.847 366.649 116.712C364.748 115.557 363.348 114.114 362.448 112.382C361.905 111.362 361.483 110.226 361.183 108.975C360.897 107.705 360.419 106.752 359.747 106.117L360.069 105.511C360.712 106.088 361.405 106.377 362.148 106.377C362.905 106.377 363.869 106.339 365.041 106.262C366.213 106.185 367.535 106.098 369.006 106.002C370.478 105.886 371.528 105.809 372.157 105.771C372.786 105.732 373.25 105.617 373.55 105.424C373.85 105.213 374.065 104.837 374.193 104.299L375.158 104.732C375.115 104.886 375.093 105.088 375.093 105.338C375.093 105.973 375.486 106.695 376.272 107.503C377.058 108.311 378.48 108.715 380.538 108.715C381.924 108.715 382.91 108.398 383.495 107.763C383.753 107.474 383.881 107.128 383.881 106.723C383.881 105.78 383.495 105.155 382.724 104.847C381.952 104.539 381.016 104.279 379.916 104.068C378.83 103.837 377.737 103.654 376.637 103.519C375.551 103.384 374.372 103.192 373.1 102.942C371.828 102.692 370.628 102.422 369.499 102.134C368.37 101.826 367.27 101.383 366.199 100.806C365.141 100.228 364.234 99.5547 363.476 98.7848C362.719 97.9958 362.105 96.995 361.633 95.7826C361.176 94.5509 360.947 93.1556 360.947 91.5968C360.947 90.0379 361.126 88.6137 361.483 87.3243C361.855 86.0349 362.355 84.9283 362.983 84.0045C363.612 83.0807 364.37 82.2628 365.255 81.5507C366.156 80.8387 367.092 80.2613 368.063 79.8187C369.049 79.376 370.121 79.02 371.278 78.7506C373.293 78.2502 375.193 78 376.98 78C378.766 78 380.123 78.0385 381.052 78.1155C381.995 78.1732 383.095 78.2983 384.353 78.4908C385.625 78.664 386.768 78.9623 387.782 79.3857C388.811 79.7898 389.825 80.3094 390.826 80.9445C392.912 82.2532 394.377 84.2836 395.22 87.0356C395.563 88.0171 396.034 88.9313 396.634 89.7781L396.356 90.442C395.755 89.8839 395.062 89.6049 394.277 89.6049H393.998C392.855 89.6626 391.219 89.7781 389.09 89.9513C386.975 90.1052 385.61 90.2015 384.996 90.24C384.396 90.2785 383.96 90.3939 383.688 90.5864C383.431 90.7788 383.245 91.1445 383.131 91.6834L382.188 91.3369C382.231 91.1637 382.252 90.9809 382.252 90.7885C382.252 89.9802 381.766 89.2873 380.795 88.71C379.823 88.1134 378.723 87.8151 377.494 87.8151C375.093 87.8151 373.893 88.4502 373.893 89.7203C373.893 90.8558 375.694 91.6834 379.294 92.203C380.138 92.3377 381.095 92.4724 382.167 92.6071C385.896 93.1267 388.754 93.81 390.74 94.6567C394.912 96.4273 396.999 99.8048 396.999 104.789C396.999 106.829 396.684 108.667 396.056 110.303C395.427 111.92 394.605 113.238 393.591 114.258C392.59 115.278 391.404 116.125 390.033 116.798C387.561 118.011 384.739 118.617 381.566 118.617C380.709 118.617 380.202 118.607 380.045 118.588C379.273 118.588 378.887 119.387 378.887 120.984V121.677C378.887 122.197 378.98 122.957 379.166 123.958C379.366 124.978 379.466 125.738 379.466 126.238C379.466 127.258 379.202 127.768 378.673 127.768C378.401 127.768 378.187 127.614 378.03 127.306C377.887 126.998 377.816 126.613 377.816 126.152C377.816 125.69 377.901 124.901 378.073 123.784C378.258 122.687 378.351 121.889 378.351 121.388C378.351 120.888 378.344 120.532 378.33 120.32C378.33 120.128 378.308 119.878 378.266 119.57C378.237 119.281 378.18 119.069 378.094 118.935C377.894 118.588 377.551 118.415 377.065 118.415C376.179 118.415 375.736 119.454 375.736 121.533L375.865 126.267C375.865 127.537 375.729 128.172 375.458 128.172C375.186 128.172 375.051 127.826 375.051 127.133Z" fill="#553795"/>
<path d="M412.859 134.263L413.095 126.585C413.095 124.102 413.024 122.533 412.881 121.879C412.752 121.225 412.617 120.647 412.474 120.147C412.331 119.647 412.145 119.243 411.916 118.935C411.688 118.627 411.416 118.338 411.102 118.069C410.502 117.53 409.559 117.26 408.273 117.26C406.987 117.26 405.901 117.963 405.015 119.368C404.143 120.773 403.707 122.456 403.707 124.419C403.707 125.151 403.814 126.238 404.029 127.682C404.243 129.144 404.35 130.241 404.35 130.972C404.35 132.358 403.986 133.051 403.257 133.051C402.528 133.051 402.164 132.377 402.164 131.03C402.164 130.28 402.271 129.154 402.486 127.653C402.714 126.152 402.829 125.016 402.829 124.246L402.979 116.51V82.59C402.979 81.3968 402.7 80.4345 402.143 79.7032L402.571 79.097C403.171 79.8668 403.886 80.2517 404.715 80.2517H412.474C413.331 80.2517 414.045 79.8668 414.617 79.097L415.046 79.7032C414.488 80.4538 414.21 81.416 414.21 82.59V116.365C414.21 117.366 414.131 119.089 413.974 121.533C413.817 123.996 413.767 125.892 413.824 127.22H413.803C414.331 130.414 414.596 132.849 414.596 134.523C414.596 136.198 414.36 137.035 413.888 137.035C413.202 137.035 412.859 136.111 412.859 134.263Z" fill="#553795"/>
<path d="M447.025 109.755C446.482 109.177 446.21 108.504 446.21 107.734V107.503C446.21 106.733 446.467 106.002 446.982 105.309L446.682 104.934C446.167 105.627 445.631 105.973 445.074 105.973H442.995C442.123 105.973 441.409 106.348 440.852 107.099L440.402 106.493C440.973 105.723 441.259 104.77 441.259 103.635V99.3622C441.259 98.2075 440.973 97.2452 440.402 96.4754L440.852 95.8981C441.395 96.6294 442.109 96.995 442.995 96.995H456.155C457.041 96.995 457.756 96.6294 458.299 95.8981L458.706 96.4754C458.163 97.2067 457.891 98.169 457.891 99.3622V111.458C457.891 112.054 457.949 112.536 458.063 112.901C458.191 113.248 458.442 113.556 458.813 113.825L458.47 114.662C458.213 114.489 457.92 114.402 457.591 114.402C457.277 114.402 456.913 114.585 456.498 114.951C453.183 117.934 448.468 119.608 442.352 119.974V122.745L442.695 125.949C442.695 126.411 442.624 126.767 442.481 127.018C442.338 127.268 442.173 127.393 441.988 127.393C441.816 127.393 441.659 127.277 441.516 127.046C441.373 126.816 441.302 126.585 441.302 126.354C441.302 126.142 441.33 125.844 441.388 125.459C441.559 124.266 441.645 123.053 441.645 121.821C441.645 120.59 441.58 119.974 441.452 119.974C438.651 119.974 435.708 119.714 432.621 119.194C432.493 119.137 432.428 120.166 432.428 122.283C432.428 124.4 432.557 126.585 432.814 128.836C433.086 131.088 433.221 132.656 433.221 133.542C433.221 135.332 432.814 136.226 432 136.226C431.614 136.226 431.278 136.024 430.992 135.62C430.721 135.216 430.585 134.562 430.585 133.657C430.585 132.772 430.821 131.175 431.292 128.865C431.764 126.575 432 124.785 432 123.496V118.992C423.841 116.529 419.761 109.899 419.761 99.1024C419.761 90.8847 422.276 85.14 427.306 81.8683C430.206 79.963 433.75 79.0104 437.937 79.0104C444.695 79.0104 449.882 80.7906 453.498 84.3509C455.455 86.2754 456.705 88.4694 457.248 90.9328C457.506 92.0875 457.963 92.9728 458.62 93.5886L458.299 94.166C457.713 93.5886 456.941 93.3 455.984 93.3L446.939 93.7041C446.039 93.7811 445.431 94.243 445.117 95.0898L444.41 94.6279C444.524 94.3007 444.581 93.9254 444.581 93.502C444.581 93.0786 444.338 92.4339 443.852 91.5679C443.367 90.6826 442.695 90.0186 441.838 89.576C440.995 89.1141 439.873 88.8832 438.473 88.8832C437.087 88.8832 435.958 89.1526 435.086 89.6915C434.214 90.2303 433.521 90.9713 433.007 91.9143C432.007 93.8196 431.507 96.3407 431.507 99.4777C431.507 102.615 432.25 105.203 433.736 107.243C435.236 109.264 437.194 110.274 439.609 110.274C442.023 110.274 443.86 110.063 445.117 109.639C445.346 109.562 445.567 109.524 445.781 109.524C445.996 109.524 446.324 109.755 446.767 110.217L447.025 109.755Z" fill="#553795"/>
<path d="M472.295 127.653L472.809 119.829C472.809 119.214 472.552 118.704 472.038 118.3C471.195 117.664 470.166 117.347 468.951 117.347C467.322 117.347 466.201 117.78 465.586 118.646C465.315 119.031 465.179 119.589 465.179 120.32C465.179 121.071 465.343 122.37 465.672 124.217C466 126.065 466.165 127.364 466.165 128.115C466.165 128.884 466.058 129.491 465.843 129.933C465.643 130.395 465.343 130.626 464.943 130.626C464.543 130.626 464.236 130.395 464.021 129.933C463.807 129.491 463.7 128.884 463.7 128.115C463.7 127.345 463.871 126.017 464.214 124.131C464.572 122.245 464.75 120.821 464.75 119.858L464.729 84.4664C464.729 82.1955 464.214 80.2998 463.186 78.7794L463.636 78.1732C464.793 79.5589 466.201 80.2517 467.858 80.2517H474.267C475.181 80.2517 475.953 80.1074 476.582 79.8187C477.225 79.5108 477.739 78.9141 478.125 78.0289L478.832 78.4908C478.461 79.684 478.275 80.8098 478.275 81.8683C478.275 82.7343 479.404 84.909 481.661 88.3924C484.605 92.9343 486.498 95.9847 487.341 97.5435C488.184 99.1024 488.734 100.363 488.992 101.325H490.278C489.577 99.9396 489.227 97.9862 489.227 95.465C489.227 94.2911 489.335 92.5398 489.549 90.2111C489.763 87.8632 489.87 86.1022 489.87 84.9283C489.87 81.7721 489.127 79.7224 487.641 78.7794L488.091 78.1732C489.249 79.5589 490.656 80.2517 492.314 80.2517H496.708C498.365 80.2517 499.773 79.5589 500.93 78.1732L501.359 78.7794C500.344 80.319 499.837 82.2147 499.837 84.4664L499.794 119.714C499.794 120.542 499.937 121.773 500.223 123.409C500.509 125.064 500.651 126.306 500.651 127.133C500.651 128.365 500.301 128.981 499.601 128.981C498.901 128.981 498.551 128.365 498.551 127.133C498.551 126.325 498.687 125.132 498.958 123.553C499.23 121.995 499.365 120.917 499.365 120.32C499.365 119.743 499.223 119.329 498.937 119.079C498.651 118.829 498.372 118.704 498.101 118.704H489.635C488.434 118.704 487.834 120.176 487.834 123.12C487.834 124.333 487.998 126.084 488.327 128.374C488.67 130.684 488.842 132.425 488.842 133.599C488.842 135.274 488.377 136.111 487.448 136.111C486.52 136.111 486.055 135.264 486.055 133.571C486.055 132.493 486.234 130.924 486.591 128.865C486.963 126.806 487.155 125.257 487.17 124.217L487.213 120.378C487.255 118.588 487.12 117.424 486.805 116.885L476.539 99.3622C476.267 98.8811 475.967 97.8803 475.638 96.3599L474.331 96.4177C475.074 97.4569 475.446 98.6116 475.446 99.8818V116.365L475.853 130.972C475.853 131.28 475.781 131.54 475.638 131.752C475.51 131.983 475.324 132.098 475.081 132.098C474.853 132.098 474.66 131.964 474.502 131.694C474.345 131.444 474.267 131.155 474.267 130.828L474.524 119.743C474.524 119.512 474.46 119.3 474.331 119.108C474.202 118.915 474.052 118.819 473.881 118.819C473.509 118.819 473.324 119.204 473.324 119.974C473.324 120.744 473.416 122.004 473.602 123.756C473.802 125.507 473.902 126.71 473.902 127.364C473.902 128.827 473.631 129.558 473.088 129.558C472.559 129.558 472.295 128.923 472.295 127.653Z" fill="#553795"/>
<path d="M519.32 113.912L518.977 110.332V110.014C519.277 109.302 519.684 108.946 520.199 108.946L537.689 108.975C538.56 108.975 539.268 108.6 539.811 107.849L540.239 108.427C539.439 110.409 539.039 113.998 539.039 119.194C539.039 120.003 539.168 121.562 539.425 123.871C539.696 126.2 539.832 127.739 539.832 128.49C539.832 129.26 539.739 129.827 539.553 130.193C539.368 130.559 539.146 130.742 538.889 130.742C538.632 130.742 538.403 130.539 538.203 130.135C538.017 129.731 537.924 129.173 537.924 128.461L538.267 122.081C538.267 120.388 538.046 119.117 537.603 118.271C537.16 117.405 536.56 116.972 535.803 116.972C534.102 116.972 533.252 118.694 533.252 122.139C533.252 123.467 533.395 125.391 533.681 127.912C533.981 130.434 534.131 132.012 534.131 132.647C534.131 133.282 534.024 133.763 533.809 134.09C533.595 134.437 533.345 134.61 533.059 134.61C532.788 134.61 532.545 134.446 532.33 134.119C532.13 133.811 532.03 133.388 532.03 132.849L532.416 123.64C532.416 120.272 531.88 118.588 530.809 118.588L529.18 118.646H512.333C511.061 118.646 510.125 118.973 509.525 119.627C508.839 120.397 508.496 122.572 508.496 126.152C508.496 127.595 508.66 129.722 508.989 132.531C509.318 135.36 509.482 137.487 509.482 138.911C509.482 140.97 508.939 142 507.853 142C506.681 142 506.096 140.942 506.096 138.825C506.096 137.381 506.331 135.245 506.803 132.416C507.274 129.587 507.51 127.441 507.51 125.978L507.403 116.308V82.6477C507.403 81.4545 507.132 80.5019 506.589 79.7898L507.017 79.1836C507.603 79.9341 508.318 80.3094 509.161 80.3094H536.681C537.553 80.3094 538.267 79.9341 538.825 79.1836L539.253 79.7898C538.625 80.6366 538.31 82.2917 538.31 84.7551V86.0541C538.31 88.2288 538.625 89.7203 539.253 90.5286L538.825 91.0771C538.11 90.0956 536.431 89.6049 533.788 89.6049L523.135 90.2688C520.506 90.2688 518.834 89.7781 518.12 88.7966L517.67 89.3739C518.227 90.1052 518.506 91.0771 518.506 92.2896C518.506 93.4828 518.227 94.445 517.67 95.1764L518.12 95.7249C518.806 94.7626 520.249 94.2815 522.449 94.2815L531.43 94.9454C533.645 94.9454 535.11 94.4643 535.824 93.502L536.274 94.0794C535.645 94.9262 535.331 96.6967 535.331 99.3911V100.517C535.331 102.576 535.645 104.029 536.274 104.876L535.824 105.482C535.138 104.52 533.688 104.039 531.473 104.039L522.492 104.674C520.292 104.674 518.834 104.193 518.12 103.23L517.691 103.808C518.291 104.635 518.591 106.079 518.591 108.138L518.548 110.39L518.184 113.854C518.184 114.547 518.37 114.893 518.741 114.893C519.127 114.893 519.32 114.566 519.32 113.912Z" fill="#553795"/>
<path d="M580.17 128.172L580.642 122.197C580.642 119.772 579.906 117.924 578.434 116.654C576.976 115.365 575.44 114.797 573.826 114.951C572.211 115.086 571.082 115.817 570.439 117.145C570.111 117.78 569.946 118.53 569.946 119.396L569.839 127.133C569.839 128.192 569.961 129.76 570.203 131.839C570.446 133.936 570.568 135.514 570.568 136.573C570.568 138.44 570.175 139.373 569.389 139.373C568.603 139.373 568.21 138.469 568.21 136.659C568.21 135.466 568.339 133.753 568.596 131.521C568.853 129.289 568.996 127.595 569.025 126.44C569.067 125.286 569.089 122.822 569.089 119.05C569.089 118.049 568.86 116.895 568.403 115.586C567.946 114.277 567.224 112.478 566.238 110.188C565.252 107.897 564.445 105.877 563.816 104.125L563.173 103.635C562.83 104.481 562.223 104.905 561.351 104.905L559.551 104.991C558.322 104.991 557.4 104.587 556.786 103.779L556.336 104.356C556.379 105.068 556.4 106.589 556.4 108.917L556.379 115.99C556.379 118.107 556.407 119.666 556.465 120.667L556.872 124.91C556.872 125.699 556.672 126.094 556.272 126.094C555.872 126.094 555.671 125.728 555.671 124.997L556.014 121.417C556.014 120.551 555.822 119.858 555.436 119.339C555.064 118.838 554.571 118.588 553.957 118.588C553.357 118.588 552.821 118.944 552.349 119.656C551.892 120.388 551.663 121.331 551.663 122.485C551.663 123.64 551.821 125.199 552.135 127.162C552.449 129.144 552.606 130.568 552.606 131.434C552.606 133.243 552.128 134.148 551.17 134.148C550.213 134.148 549.734 133.263 549.734 131.492C549.734 130.665 549.87 129.221 550.142 127.162C550.427 125.103 550.57 123.467 550.57 122.254C550.57 121.042 550.363 120.041 549.949 119.252C549.534 118.482 549.063 118.097 548.534 118.097C548.005 118.097 547.555 118.338 547.184 118.819C546.812 119.319 546.626 119.935 546.626 120.667L547.205 127.508C547.205 128.682 546.884 129.269 546.241 129.269C545.598 129.269 545.276 128.673 545.276 127.479C545.276 126.787 545.412 125.574 545.683 123.842C545.955 122.129 546.084 120.792 546.069 119.829C546.055 118.867 546.048 106.416 546.048 82.4745C546.048 81.2813 545.776 80.3287 545.233 79.6166L545.662 79.0392C546.219 79.7706 546.927 80.1362 547.784 80.1362H566.988C569.989 80.1362 572.004 80.2613 573.033 80.5115C574.076 80.7424 574.983 80.9926 575.755 81.2621C576.541 81.5315 577.198 81.8683 577.727 82.2724C578.27 82.6573 578.813 83.1481 579.356 83.7447C579.913 84.3221 580.356 84.986 580.684 85.7366C581.442 87.4494 581.82 89.2681 581.82 91.1926C581.82 93.1171 581.706 94.6952 581.478 95.9269C581.263 97.1394 580.899 98.2845 580.384 99.3622C579.27 101.691 577.312 102.855 574.512 102.855L574.34 103.519C575.24 104 575.84 104.664 576.141 105.511C577.398 109.206 578.327 111.554 578.927 112.555C579.527 113.536 580.084 114.325 580.599 114.922C581.113 115.519 581.849 116.125 582.806 116.741C583.764 117.356 584.342 117.761 584.543 117.953C584.743 118.126 584.843 118.271 584.843 118.386C584.843 120.311 585.035 122.784 585.421 125.805C585.807 128.827 586 130.77 586 131.636C586 132.502 585.971 133.128 585.914 133.513C585.871 133.898 585.764 134.273 585.593 134.639C585.421 135.024 585.171 135.216 584.843 135.216C584.514 135.216 584.264 134.899 584.092 134.263C583.935 133.628 583.857 132.849 583.857 131.925C583.857 131.001 583.95 129.346 584.135 126.96C584.321 124.593 584.414 122.803 584.414 121.59C584.414 119.185 583.835 117.982 582.678 117.982C582.106 117.982 581.678 118.117 581.392 118.386C581.12 118.656 580.985 119.204 580.985 120.032C580.985 120.878 581.113 122.216 581.37 124.044C581.628 125.873 581.756 127.249 581.756 128.172C581.756 129.115 581.492 129.587 580.963 129.587C580.434 129.587 580.17 129.115 580.17 128.172ZM565.895 89.7203L560.837 89.9224C558.765 89.9224 557.415 89.5086 556.786 88.6811L556.336 89.2296C556.907 89.9802 557.193 90.9424 557.193 92.1164V94.0505C557.193 95.2052 556.907 96.1675 556.336 96.9373L556.786 97.5147C557.4 96.6679 558.672 96.2445 560.601 96.2445L566.024 96.5043C567.467 96.5043 568.582 96.2541 569.368 95.7537C570.168 95.2341 570.568 94.2911 570.568 92.9247C570.568 92.0586 570.346 91.3851 569.903 90.9039C569.46 90.4035 568.925 90.086 568.296 89.9513C567.667 89.7973 566.867 89.7203 565.895 89.7203Z" fill="#553795"/>
<path d="M292.874 125.834L293.324 121.735C293.324 118.906 291.081 117.491 286.594 117.491C285.823 117.491 285.287 117.732 284.987 118.213C284.687 118.694 284.537 119.512 284.537 120.667C284.537 121.821 284.665 123.419 284.922 125.459C285.18 127.518 285.308 129.086 285.308 130.164C285.308 131.261 284.987 131.81 284.344 131.81C283.701 131.81 283.379 131.232 283.379 130.078C283.379 128.942 283.479 127.22 283.679 124.91C283.879 122.601 283.979 121.032 283.979 120.205C283.979 118.242 283.715 117.26 283.186 117.26C282.843 117.26 282.672 117.809 282.672 118.906L283.186 123.698C283.186 124.833 282.879 125.401 282.265 125.401C281.664 125.401 281.364 124.824 281.364 123.669L281.857 118.357L281.836 113.565V82.59C281.836 81.3968 281.557 80.4345 281 79.7032L281.429 79.097C282.015 79.8668 282.729 80.2517 283.572 80.2517H301.276C309.821 80.2517 315.122 83.9949 317.18 91.4813C317.751 93.5983 318.037 95.8596 318.037 98.2652C318.037 100.652 317.923 102.711 317.694 104.443C317.48 106.156 317.201 107.667 316.858 108.975C316.515 110.265 316.03 111.41 315.401 112.41C314.786 113.411 314.165 114.258 313.536 114.951C312.922 115.624 312.136 116.202 311.178 116.683C310.221 117.164 309.335 117.539 308.521 117.809C307.706 118.059 306.685 118.251 305.456 118.386C303.527 118.598 301.262 118.704 298.661 118.704H295.553C294.353 118.704 293.753 119.858 293.753 122.168L294.096 125.863C294.096 126.594 293.91 126.96 293.539 126.96C293.096 126.96 292.874 126.585 292.874 125.834ZM305.156 105.973C305.599 105.203 305.942 104.212 306.184 103C306.427 101.768 306.549 100.296 306.549 98.5828C306.549 96.8507 306.335 95.4073 305.906 94.2526C305.477 93.0979 304.906 92.2511 304.191 91.7122C303.477 91.1734 302.684 90.7788 301.812 90.5286C300.94 90.2592 300.026 90.1149 299.069 90.0956C298.111 90.0571 297.218 90.0283 296.389 90.009C294.36 89.9705 293.06 89.5664 292.488 88.7966L292.06 89.3739C292.603 90.086 292.874 91.0483 292.874 92.2607V98.9003C292.874 103.327 292.888 106.637 292.917 108.831H297.783C300.226 108.831 301.955 108.542 302.969 107.965C303.998 107.387 304.727 106.724 305.156 105.973ZM294.246 136.053C294.246 136.939 294.003 137.381 293.517 137.381C293.046 137.381 292.81 137.015 292.81 136.284C292.81 135.572 292.838 134.947 292.896 134.408C292.967 133.869 293.081 133.176 293.239 132.329C293.396 131.502 293.489 130.982 293.517 130.77C293.56 131.021 293.639 131.434 293.753 132.012C293.867 132.608 293.953 133.07 294.01 133.397C294.167 134.302 294.246 135.187 294.246 136.053Z" stroke="white" stroke-width="10" mask="url(#path-44-outside-1)"/>
<path d="M335.763 113.912L335.42 110.332V110.014C335.72 109.302 336.127 108.946 336.642 108.946L354.131 108.975C355.003 108.975 355.71 108.6 356.253 107.849L356.682 108.427C355.882 110.409 355.482 113.998 355.482 119.194C355.482 120.003 355.61 121.562 355.868 123.871C356.139 126.2 356.275 127.739 356.275 128.49C356.275 129.26 356.182 129.827 355.996 130.193C355.81 130.559 355.589 130.742 355.332 130.742C355.074 130.742 354.846 130.539 354.646 130.135C354.46 129.731 354.367 129.173 354.367 128.461L354.71 122.081C354.71 120.388 354.489 119.117 354.046 118.271C353.603 117.405 353.003 116.972 352.245 116.972C350.545 116.972 349.695 118.694 349.695 122.139C349.695 123.467 349.838 125.391 350.123 127.912C350.423 130.434 350.573 132.012 350.573 132.647C350.573 133.282 350.466 133.763 350.252 134.09C350.038 134.437 349.788 134.61 349.502 134.61C349.23 134.61 348.987 134.446 348.773 134.119C348.573 133.811 348.473 133.388 348.473 132.849L348.859 123.64C348.859 120.272 348.323 118.588 347.251 118.588L345.622 118.646H328.775C327.504 118.646 326.568 118.973 325.968 119.627C325.282 120.397 324.939 122.572 324.939 126.152C324.939 127.595 325.103 129.722 325.432 132.531C325.76 135.36 325.925 137.487 325.925 138.911C325.925 140.97 325.382 142 324.296 142C323.124 142 322.538 140.942 322.538 138.825C322.538 137.381 322.774 135.245 323.246 132.416C323.717 129.587 323.953 127.441 323.953 125.978L323.846 116.308V82.6477C323.846 81.4545 323.574 80.5019 323.031 79.7898L323.46 79.1836C324.046 79.9341 324.76 80.3094 325.603 80.3094H353.124C353.996 80.3094 354.71 79.9341 355.267 79.1836L355.696 79.7898C355.067 80.6366 354.753 82.2917 354.753 84.7551V86.0541C354.753 88.2288 355.067 89.7203 355.696 90.5286L355.267 91.0771C354.553 90.0956 352.874 89.6049 350.23 89.6049L339.578 90.2688C336.949 90.2688 335.277 89.7781 334.563 88.7966L334.112 89.3739C334.67 90.1052 334.948 91.0771 334.948 92.2896C334.948 93.4828 334.67 94.445 334.112 95.1764L334.563 95.7249C335.248 94.7626 336.692 94.2815 338.892 94.2815L347.873 94.9454C350.088 94.9454 351.552 94.4643 352.267 93.502L352.717 94.0794C352.088 94.9262 351.774 96.6967 351.774 99.3911V100.517C351.774 102.576 352.088 104.029 352.717 104.876L352.267 105.482C351.581 104.52 350.13 104.039 347.916 104.039L338.935 104.674C336.734 104.674 335.277 104.193 334.563 103.23L334.134 103.808C334.734 104.635 335.034 106.079 335.034 108.138L334.991 110.39L334.627 113.854C334.627 114.547 334.813 114.893 335.184 114.893C335.57 114.893 335.763 114.566 335.763 113.912Z" stroke="white" stroke-width="10" mask="url(#path-44-outside-1)"/>
<path d="M375.051 127.133L375.265 124.217V118.819C371.421 118.55 368.549 117.847 366.649 116.712C364.748 115.557 363.348 114.114 362.448 112.382C361.905 111.362 361.483 110.226 361.183 108.975C360.897 107.705 360.419 106.752 359.747 106.117L360.069 105.511C360.712 106.088 361.405 106.377 362.148 106.377C362.905 106.377 363.869 106.339 365.041 106.262C366.213 106.185 367.535 106.098 369.006 106.002C370.478 105.886 371.528 105.809 372.157 105.771C372.786 105.732 373.25 105.617 373.55 105.424C373.85 105.213 374.065 104.837 374.193 104.299L375.158 104.732C375.115 104.886 375.093 105.088 375.093 105.338C375.093 105.973 375.486 106.695 376.272 107.503C377.058 108.311 378.48 108.715 380.538 108.715C381.924 108.715 382.91 108.398 383.495 107.763C383.753 107.474 383.881 107.128 383.881 106.723C383.881 105.78 383.495 105.155 382.724 104.847C381.952 104.539 381.016 104.279 379.916 104.068C378.83 103.837 377.737 103.654 376.637 103.519C375.551 103.384 374.372 103.192 373.1 102.942C371.828 102.692 370.628 102.422 369.499 102.134C368.37 101.826 367.27 101.383 366.199 100.806C365.141 100.228 364.234 99.5547 363.476 98.7848C362.719 97.9958 362.105 96.995 361.633 95.7826C361.176 94.5509 360.947 93.1556 360.947 91.5968C360.947 90.0379 361.126 88.6137 361.483 87.3243C361.855 86.0349 362.355 84.9283 362.983 84.0045C363.612 83.0807 364.37 82.2628 365.255 81.5507C366.156 80.8387 367.092 80.2613 368.063 79.8187C369.049 79.376 370.121 79.02 371.278 78.7506C373.293 78.2502 375.193 78 376.98 78C378.766 78 380.123 78.0385 381.052 78.1155C381.995 78.1732 383.095 78.2983 384.353 78.4908C385.625 78.664 386.768 78.9623 387.782 79.3857C388.811 79.7898 389.825 80.3094 390.826 80.9445C392.912 82.2532 394.377 84.2836 395.22 87.0356C395.563 88.0171 396.034 88.9313 396.634 89.7781L396.356 90.442C395.755 89.8839 395.062 89.6049 394.277 89.6049H393.998C392.855 89.6626 391.219 89.7781 389.09 89.9513C386.975 90.1052 385.61 90.2015 384.996 90.24C384.396 90.2785 383.96 90.3939 383.688 90.5864C383.431 90.7788 383.245 91.1445 383.131 91.6834L382.188 91.3369C382.231 91.1637 382.252 90.9809 382.252 90.7885C382.252 89.9802 381.766 89.2873 380.795 88.71C379.823 88.1134 378.723 87.8151 377.494 87.8151C375.093 87.8151 373.893 88.4502 373.893 89.7203C373.893 90.8558 375.694 91.6834 379.294 92.203C380.138 92.3377 381.095 92.4724 382.167 92.6071C385.896 93.1267 388.754 93.81 390.74 94.6567C394.912 96.4273 396.999 99.8048 396.999 104.789C396.999 106.829 396.684 108.667 396.056 110.303C395.427 111.92 394.605 113.238 393.591 114.258C392.59 115.278 391.404 116.125 390.033 116.798C387.561 118.011 384.739 118.617 381.566 118.617C380.709 118.617 380.202 118.607 380.045 118.588C379.273 118.588 378.887 119.387 378.887 120.984V121.677C378.887 122.197 378.98 122.957 379.166 123.958C379.366 124.978 379.466 125.738 379.466 126.238C379.466 127.258 379.202 127.768 378.673 127.768C378.401 127.768 378.187 127.614 378.03 127.306C377.887 126.998 377.816 126.613 377.816 126.152C377.816 125.69 377.901 124.901 378.073 123.784C378.258 122.687 378.351 121.889 378.351 121.388C378.351 120.888 378.344 120.532 378.33 120.32C378.33 120.128 378.308 119.878 378.266 119.57C378.237 119.281 378.18 119.069 378.094 118.935C377.894 118.588 377.551 118.415 377.065 118.415C376.179 118.415 375.736 119.454 375.736 121.533L375.865 126.267C375.865 127.537 375.729 128.172 375.458 128.172C375.186 128.172 375.051 127.826 375.051 127.133Z" stroke="white" stroke-width="10" mask="url(#path-44-outside-1)"/>
<path d="M412.859 134.263L413.095 126.585C413.095 124.102 413.024 122.533 412.881 121.879C412.752 121.225 412.617 120.647 412.474 120.147C412.331 119.647 412.145 119.243 411.916 118.935C411.688 118.627 411.416 118.338 411.102 118.069C410.502 117.53 409.559 117.26 408.273 117.26C406.987 117.26 405.901 117.963 405.015 119.368C404.143 120.773 403.707 122.456 403.707 124.419C403.707 125.151 403.814 126.238 404.029 127.682C404.243 129.144 404.35 130.241 404.35 130.972C404.35 132.358 403.986 133.051 403.257 133.051C402.528 133.051 402.164 132.377 402.164 131.03C402.164 130.28 402.271 129.154 402.486 127.653C402.714 126.152 402.829 125.016 402.829 124.246L402.979 116.51V82.59C402.979 81.3968 402.7 80.4345 402.143 79.7032L402.571 79.097C403.171 79.8668 403.886 80.2517 404.715 80.2517H412.474C413.331 80.2517 414.045 79.8668 414.617 79.097L415.046 79.7032C414.488 80.4538 414.21 81.416 414.21 82.59V116.365C414.21 117.366 414.131 119.089 413.974 121.533C413.817 123.996 413.767 125.892 413.824 127.22H413.803C414.331 130.414 414.596 132.849 414.596 134.523C414.596 136.198 414.36 137.035 413.888 137.035C413.202 137.035 412.859 136.111 412.859 134.263Z" stroke="white" stroke-width="10" mask="url(#path-44-outside-1)"/>
<path d="M447.025 109.755C446.482 109.177 446.21 108.504 446.21 107.734V107.503C446.21 106.733 446.467 106.002 446.982 105.309L446.682 104.934C446.167 105.627 445.631 105.973 445.074 105.973H442.995C442.123 105.973 441.409 106.348 440.852 107.099L440.402 106.493C440.973 105.723 441.259 104.77 441.259 103.635V99.3622C441.259 98.2075 440.973 97.2452 440.402 96.4754L440.852 95.8981C441.395 96.6294 442.109 96.995 442.995 96.995H456.155C457.041 96.995 457.756 96.6294 458.299 95.8981L458.706 96.4754C458.163 97.2067 457.891 98.169 457.891 99.3622V111.458C457.891 112.054 457.949 112.536 458.063 112.901C458.191 113.248 458.442 113.556 458.813 113.825L458.47 114.662C458.213 114.489 457.92 114.402 457.591 114.402C457.277 114.402 456.913 114.585 456.498 114.951C453.183 117.934 448.468 119.608 442.352 119.974V122.745L442.695 125.949C442.695 126.411 442.624 126.767 442.481 127.018C442.338 127.268 442.173 127.393 441.988 127.393C441.816 127.393 441.659 127.277 441.516 127.046C441.373 126.816 441.302 126.585 441.302 126.354C441.302 126.142 441.33 125.844 441.388 125.459C441.559 124.266 441.645 123.053 441.645 121.821C441.645 120.59 441.58 119.974 441.452 119.974C438.651 119.974 435.708 119.714 432.621 119.194C432.493 119.137 432.428 120.166 432.428 122.283C432.428 124.4 432.557 126.585 432.814 128.836C433.086 131.088 433.221 132.656 433.221 133.542C433.221 135.332 432.814 136.226 432 136.226C431.614 136.226 431.278 136.024 430.992 135.62C430.721 135.216 430.585 134.562 430.585 133.657C430.585 132.772 430.821 131.175 431.292 128.865C431.764 126.575 432 124.785 432 123.496V118.992C423.841 116.529 419.761 109.899 419.761 99.1024C419.761 90.8847 422.276 85.14 427.306 81.8683C430.206 79.963 433.75 79.0104 437.937 79.0104C444.695 79.0104 449.882 80.7906 453.498 84.3509C455.455 86.2754 456.705 88.4694 457.248 90.9328C457.506 92.0875 457.963 92.9728 458.62 93.5886L458.299 94.166C457.713 93.5886 456.941 93.3 455.984 93.3L446.939 93.7041C446.039 93.7811 445.431 94.243 445.117 95.0898L444.41 94.6279C444.524 94.3007 444.581 93.9254 444.581 93.502C444.581 93.0786 444.338 92.4339 443.852 91.5679C443.367 90.6826 442.695 90.0186 441.838 89.576C440.995 89.1141 439.873 88.8832 438.473 88.8832C437.087 88.8832 435.958 89.1526 435.086 89.6915C434.214 90.2303 433.521 90.9713 433.007 91.9143C432.007 93.8196 431.507 96.3407 431.507 99.4777C431.507 102.615 432.25 105.203 433.736 107.243C435.236 109.264 437.194 110.274 439.609 110.274C442.023 110.274 443.86 110.063 445.117 109.639C445.346 109.562 445.567 109.524 445.781 109.524C445.996 109.524 446.324 109.755 446.767 110.217L447.025 109.755Z" stroke="white" stroke-width="10" mask="url(#path-44-outside-1)"/>
<path d="M472.295 127.653L472.809 119.829C472.809 119.214 472.552 118.704 472.038 118.3C471.195 117.664 470.166 117.347 468.951 117.347C467.322 117.347 466.201 117.78 465.586 118.646C465.315 119.031 465.179 119.589 465.179 120.32C465.179 121.071 465.343 122.37 465.672 124.217C466 126.065 466.165 127.364 466.165 128.115C466.165 128.884 466.058 129.491 465.843 129.933C465.643 130.395 465.343 130.626 464.943 130.626C464.543 130.626 464.236 130.395 464.021 129.933C463.807 129.491 463.7 128.884 463.7 128.115C463.7 127.345 463.871 126.017 464.214 124.131C464.572 122.245 464.75 120.821 464.75 119.858L464.729 84.4664C464.729 82.1955 464.214 80.2998 463.186 78.7794L463.636 78.1732C464.793 79.5589 466.201 80.2517 467.858 80.2517H474.267C475.181 80.2517 475.953 80.1074 476.582 79.8187C477.225 79.5108 477.739 78.9141 478.125 78.0289L478.832 78.4908C478.461 79.684 478.275 80.8098 478.275 81.8683C478.275 82.7343 479.404 84.909 481.661 88.3924C484.605 92.9343 486.498 95.9847 487.341 97.5435C488.184 99.1024 488.734 100.363 488.992 101.325H490.278C489.577 99.9396 489.227 97.9862 489.227 95.465C489.227 94.2911 489.335 92.5398 489.549 90.2111C489.763 87.8632 489.87 86.1022 489.87 84.9283C489.87 81.7721 489.127 79.7224 487.641 78.7794L488.091 78.1732C489.249 79.5589 490.656 80.2517 492.314 80.2517H496.708C498.365 80.2517 499.773 79.5589 500.93 78.1732L501.359 78.7794C500.344 80.319 499.837 82.2147 499.837 84.4664L499.794 119.714C499.794 120.542 499.937 121.773 500.223 123.409C500.509 125.064 500.651 126.306 500.651 127.133C500.651 128.365 500.301 128.981 499.601 128.981C498.901 128.981 498.551 128.365 498.551 127.133C498.551 126.325 498.687 125.132 498.958 123.553C499.23 121.995 499.365 120.917 499.365 120.32C499.365 119.743 499.223 119.329 498.937 119.079C498.651 118.829 498.372 118.704 498.101 118.704H489.635C488.434 118.704 487.834 120.176 487.834 123.12C487.834 124.333 487.998 126.084 488.327 128.374C488.67 130.684 488.842 132.425 488.842 133.599C488.842 135.274 488.377 136.111 487.448 136.111C486.52 136.111 486.055 135.264 486.055 133.571C486.055 132.493 486.234 130.924 486.591 128.865C486.963 126.806 487.155 125.257 487.17 124.217L487.213 120.378C487.255 118.588 487.12 117.424 486.805 116.885L476.539 99.3622C476.267 98.8811 475.967 97.8803 475.638 96.3599L474.331 96.4177C475.074 97.4569 475.446 98.6116 475.446 99.8818V116.365L475.853 130.972C475.853 131.28 475.781 131.54 475.638 131.752C475.51 131.983 475.324 132.098 475.081 132.098C474.853 132.098 474.66 131.964 474.502 131.694C474.345 131.444 474.267 131.155 474.267 130.828L474.524 119.743C474.524 119.512 474.46 119.3 474.331 119.108C474.202 118.915 474.052 118.819 473.881 118.819C473.509 118.819 473.324 119.204 473.324 119.974C473.324 120.744 473.416 122.004 473.602 123.756C473.802 125.507 473.902 126.71 473.902 127.364C473.902 128.827 473.631 129.558 473.088 129.558C472.559 129.558 472.295 128.923 472.295 127.653Z" stroke="white" stroke-width="10" mask="url(#path-44-outside-1)"/>
<path d="M519.32 113.912L518.977 110.332V110.014C519.277 109.302 519.684 108.946 520.199 108.946L537.689 108.975C538.56 108.975 539.268 108.6 539.811 107.849L540.239 108.427C539.439 110.409 539.039 113.998 539.039 119.194C539.039 120.003 539.168 121.562 539.425 123.871C539.696 126.2 539.832 127.739 539.832 128.49C539.832 129.26 539.739 129.827 539.553 130.193C539.368 130.559 539.146 130.742 538.889 130.742C538.632 130.742 538.403 130.539 538.203 130.135C538.017 129.731 537.924 129.173 537.924 128.461L538.267 122.081C538.267 120.388 538.046 119.117 537.603 118.271C537.16 117.405 536.56 116.972 535.803 116.972C534.102 116.972 533.252 118.694 533.252 122.139C533.252 123.467 533.395 125.391 533.681 127.912C533.981 130.434 534.131 132.012 534.131 132.647C534.131 133.282 534.024 133.763 533.809 134.09C533.595 134.437 533.345 134.61 533.059 134.61C532.788 134.61 532.545 134.446 532.33 134.119C532.13 133.811 532.03 133.388 532.03 132.849L532.416 123.64C532.416 120.272 531.88 118.588 530.809 118.588L529.18 118.646H512.333C511.061 118.646 510.125 118.973 509.525 119.627C508.839 120.397 508.496 122.572 508.496 126.152C508.496 127.595 508.66 129.722 508.989 132.531C509.318 135.36 509.482 137.487 509.482 138.911C509.482 140.97 508.939 142 507.853 142C506.681 142 506.096 140.942 506.096 138.825C506.096 137.381 506.331 135.245 506.803 132.416C507.274 129.587 507.51 127.441 507.51 125.978L507.403 116.308V82.6477C507.403 81.4545 507.132 80.5019 506.589 79.7898L507.017 79.1836C507.603 79.9341 508.318 80.3094 509.161 80.3094H536.681C537.553 80.3094 538.267 79.9341 538.825 79.1836L539.253 79.7898C538.625 80.6366 538.31 82.2917 538.31 84.7551V86.0541C538.31 88.2288 538.625 89.7203 539.253 90.5286L538.825 91.0771C538.11 90.0956 536.431 89.6049 533.788 89.6049L523.135 90.2688C520.506 90.2688 518.834 89.7781 518.12 88.7966L517.67 89.3739C518.227 90.1052 518.506 91.0771 518.506 92.2896C518.506 93.4828 518.227 94.445 517.67 95.1764L518.12 95.7249C518.806 94.7626 520.249 94.2815 522.449 94.2815L531.43 94.9454C533.645 94.9454 535.11 94.4643 535.824 93.502L536.274 94.0794C535.645 94.9262 535.331 96.6967 535.331 99.3911V100.517C535.331 102.576 535.645 104.029 536.274 104.876L535.824 105.482C535.138 104.52 533.688 104.039 531.473 104.039L522.492 104.674C520.292 104.674 518.834 104.193 518.12 103.23L517.691 103.808C518.291 104.635 518.591 106.079 518.591 108.138L518.548 110.39L518.184 113.854C518.184 114.547 518.37 114.893 518.741 114.893C519.127 114.893 519.32 114.566 519.32 113.912Z" stroke="white" stroke-width="10" mask="url(#path-44-outside-1)"/>
<path d="M580.17 128.172L580.642 122.197C580.642 119.772 579.906 117.924 578.434 116.654C576.976 115.365 575.44 114.797 573.826 114.951C572.211 115.086 571.082 115.817 570.439 117.145C570.111 117.78 569.946 118.53 569.946 119.396L569.839 127.133C569.839 128.192 569.961 129.76 570.203 131.839C570.446 133.936 570.568 135.514 570.568 136.573C570.568 138.44 570.175 139.373 569.389 139.373C568.603 139.373 568.21 138.469 568.21 136.659C568.21 135.466 568.339 133.753 568.596 131.521C568.853 129.289 568.996 127.595 569.025 126.44C569.067 125.286 569.089 122.822 569.089 119.05C569.089 118.049 568.86 116.895 568.403 115.586C567.946 114.277 567.224 112.478 566.238 110.188C565.252 107.897 564.445 105.877 563.816 104.125L563.173 103.635C562.83 104.481 562.223 104.905 561.351 104.905L559.551 104.991C558.322 104.991 557.4 104.587 556.786 103.779L556.336 104.356C556.379 105.068 556.4 106.589 556.4 108.917L556.379 115.99C556.379 118.107 556.407 119.666 556.465 120.667L556.872 124.91C556.872 125.699 556.672 126.094 556.272 126.094C555.872 126.094 555.671 125.728 555.671 124.997L556.014 121.417C556.014 120.551 555.822 119.858 555.436 119.339C555.064 118.838 554.571 118.588 553.957 118.588C553.357 118.588 552.821 118.944 552.349 119.656C551.892 120.388 551.663 121.331 551.663 122.485C551.663 123.64 551.821 125.199 552.135 127.162C552.449 129.144 552.606 130.568 552.606 131.434C552.606 133.243 552.128 134.148 551.17 134.148C550.213 134.148 549.734 133.263 549.734 131.492C549.734 130.665 549.87 129.221 550.142 127.162C550.427 125.103 550.57 123.467 550.57 122.254C550.57 121.042 550.363 120.041 549.949 119.252C549.534 118.482 549.063 118.097 548.534 118.097C548.005 118.097 547.555 118.338 547.184 118.819C546.812 119.319 546.626 119.935 546.626 120.667L547.205 127.508C547.205 128.682 546.884 129.269 546.241 129.269C545.598 129.269 545.276 128.673 545.276 127.479C545.276 126.787 545.412 125.574 545.683 123.842C545.955 122.129 546.084 120.792 546.069 119.829C546.055 118.867 546.048 106.416 546.048 82.4745C546.048 81.2813 545.776 80.3287 545.233 79.6166L545.662 79.0392C546.219 79.7706 546.927 80.1362 547.784 80.1362H566.988C569.989 80.1362 572.004 80.2613 573.033 80.5115C574.076 80.7424 574.983 80.9926 575.755 81.2621C576.541 81.5315 577.198 81.8683 577.727 82.2724C578.27 82.6573 578.813 83.1481 579.356 83.7447C579.913 84.3221 580.356 84.986 580.684 85.7366C581.442 87.4494 581.82 89.2681 581.82 91.1926C581.82 93.1171 581.706 94.6952 581.478 95.9269C581.263 97.1394 580.899 98.2845 580.384 99.3622C579.27 101.691 577.312 102.855 574.512 102.855L574.34 103.519C575.24 104 575.84 104.664 576.141 105.511C577.398 109.206 578.327 111.554 578.927 112.555C579.527 113.536 580.084 114.325 580.599 114.922C581.113 115.519 581.849 116.125 582.806 116.741C583.764 117.356 584.342 117.761 584.543 117.953C584.743 118.126 584.843 118.271 584.843 118.386C584.843 120.311 585.035 122.784 585.421 125.805C585.807 128.827 586 130.77 586 131.636C586 132.502 585.971 133.128 585.914 133.513C585.871 133.898 585.764 134.273 585.593 134.639C585.421 135.024 585.171 135.216 584.843 135.216C584.514 135.216 584.264 134.899 584.092 134.263C583.935 133.628 583.857 132.849 583.857 131.925C583.857 131.001 583.95 129.346 584.135 126.96C584.321 124.593 584.414 122.803 584.414 121.59C584.414 119.185 583.835 117.982 582.678 117.982C582.106 117.982 581.678 118.117 581.392 118.386C581.12 118.656 580.985 119.204 580.985 120.032C580.985 120.878 581.113 122.216 581.37 124.044C581.628 125.873 581.756 127.249 581.756 128.172C581.756 129.115 581.492 129.587 580.963 129.587C580.434 129.587 580.17 129.115 580.17 128.172ZM565.895 89.7203L560.837 89.9224C558.765 89.9224 557.415 89.5086 556.786 88.6811L556.336 89.2296C556.907 89.9802 557.193 90.9424 557.193 92.1164V94.0505C557.193 95.2052 556.907 96.1675 556.336 96.9373L556.786 97.5147C557.4 96.6679 558.672 96.2445 560.601 96.2445L566.024 96.5043C567.467 96.5043 568.582 96.2541 569.368 95.7537C570.168 95.2341 570.568 94.2911 570.568 92.9247C570.568 92.0586 570.346 91.3851 569.903 90.9039C569.46 90.4035 568.925 90.086 568.296 89.9513C567.667 89.7973 566.867 89.7203 565.895 89.7203Z" stroke="white" stroke-width="10" mask="url(#path-44-outside-1)"/>
</g>
</g>
</g>
<defs>
<linearGradient id="paint0_linear" x1="329" y1="0" x2="329" y2="571" gradientUnits="userSpaceOnUse">
<stop stop-color="#554DAC"/>
<stop offset="1" stop-color="#6A179D" stop-opacity="0"/>
</linearGradient>
<clipPath id="clip0">
<rect width="643.451" height="542.339" fill="white"/>
</clipPath>
<clipPath id="clip1">
<rect width="305" height="64" fill="white" transform="translate(281 78)"/>
</clipPath>
</defs>
</svg>
